<?xml version="1.0" encoding="UTF-8"?>
<svg width="644px" height="128px" viewBox="0 0 644 128" version="1.1" xmlns="http://www.w3.org/2000/svg" xmlns:xlink="http://www.w3.org/1999/xlink">
    <title>formlink</title>
    <defs>
        <path d="M1.968,39.36 L26.568,39.36 L26.568,119.064 L1.968,119.064 L1.968,39.36 Z M0,14.268 C0,10.332 1.394,6.97 4.182,4.182 C6.97,1.394 10.332,0 14.268,0 C18.204,0 21.566,1.394 24.354,4.182 C27.142,6.97 28.536,10.332 28.536,14.268 C28.536,18.204 27.142,21.566 24.354,24.354 C21.566,27.142 18.204,28.536 14.268,28.536 C10.332,28.536 6.97,27.142 4.182,24.354 C0.321680713,20.4936807 0,19.7273159 0,14.268 Z" id="path-1"></path>
    </defs>
    <g id="Page-1" stroke="none" stroke-width="1" fill="none" fill-rule="evenodd">
        <g id="Group" transform="translate(-178, -436)">
            <g id="formlink" transform="translate(178, 436)">
                <path d="M16.236,65.928 L5.68434189e-14,65.928 L5.68434189e-14,46.248 L16.236,46.248 L16.236,32.144 C16.236,27.7706667 16.6186667,23.6433333 17.384,19.762 C18.1493333,15.8806667 19.6253333,12.464 21.812,9.512 C23.9986667,6.56 27.142,4.23666667 31.242,2.542 C35.342,0.847333333 40.7266667,0 47.396,0 C49.9106667,0 52.3706667,0.109333333 54.776,0.328 C57.1813333,0.546666667 59.532,0.929333333 61.828,1.476 L60.68,22.304 C59.2586667,21.7573333 57.9466667,21.3473333 56.744,21.074 C55.5413333,20.8006667 54.1746667,20.664 52.644,20.664 C48.708,20.664 45.756,21.5113333 43.788,23.206 C41.82,24.9006667 40.836,28.372 40.836,33.62 L40.836,46.248 L59.04,46.248 L59.04,65.928 L40.836,65.928 L40.836,125.952 L16.236,125.952 L16.236,65.928 Z" id="Path" fill="#4F46E5" fill-rule="nonzero"></path>
                <path d="M65.436,86.1 C65.436,79.7586667 66.584,74.0186667 68.88,68.88 C71.176,63.7413333 74.3193333,59.3406667 78.31,55.678 C82.3006667,52.0153333 87.002,49.2 92.414,47.232 C97.826,45.264 103.593333,44.28 109.716,44.28 C115.838667,44.28 121.606,45.264 127.018,47.232 C132.43,49.2 137.131333,52.0153333 141.122,55.678 C145.112667,59.3406667 148.256,63.7413333 150.552,68.88 C152.848,74.0186667 153.996,79.7586667 153.996,86.1 C153.996,92.4413333 152.848,98.1813333 150.552,103.32 C148.256,108.458667 145.112667,112.859333 141.122,116.522 C137.131333,120.184667 132.43,123 127.018,124.968 C121.606,126.936 115.838667,127.92 109.716,127.92 C103.593333,127.92 97.826,126.936 92.414,124.968 C87.002,123 82.3006667,120.184667 78.31,116.522 C74.3193333,112.859333 71.176,108.458667 68.88,103.32 C66.584,98.1813333 65.436,92.4413333 65.436,86.1 Z M90.036,86.1 C90.036,92.1133333 91.758,96.9786667 95.202,100.696 C98.646,104.413333 103.484,106.272 109.716,106.272 C115.948,106.272 120.786,104.413333 124.23,100.696 C127.674,96.9786667 129.396,92.1133333 129.396,86.1 C129.396,80.0866667 127.674,75.2213333 124.23,71.504 C120.786,67.7866667 115.948,65.928 109.716,65.928 C103.484,65.928 98.646,67.7866667 95.202,71.504 C91.758,75.2213333 90.036,80.0866667 90.036,86.1 Z" id="Shape" fill="#4F46E5" fill-rule="nonzero"></path>
                <path d="M168.428,46.248 L193.028,46.248 L193.028,59.04 L193.356,59.04 C195.98,54.12 199.096,50.43 202.704,47.97 C206.312,45.51 210.849333,44.28 216.316,44.28 C217.737333,44.28 219.158667,44.3346667 220.58,44.444 C222.001333,44.5533333 223.313333,44.772 224.516,45.1 L224.516,67.568 C222.766667,67.0213333 221.044667,66.6113333 219.35,66.338 C217.655333,66.0646667 215.878667,65.928 214.02,65.928 C209.318667,65.928 205.601333,66.584 202.868,67.896 C200.134667,69.208 198.03,71.0393333 196.554,73.39 C195.078,75.7406667 194.121333,78.556 193.684,81.836 C193.246667,85.116 193.028,88.724 193.028,92.66 L193.028,125.952 L168.428,125.952 L168.428,46.248 Z" id="Path" fill="#4F46E5" fill-rule="nonzero"></path>
                <path d="M238.128,46.248 L261.744,46.248 L261.744,57.072 L262.072,57.072 C262.837333,55.5413333 263.930667,54.0106667 265.352,52.48 C266.773333,50.9493333 268.468,49.5826667 270.436,48.38 C272.404,47.1773333 274.645333,46.1933333 277.16,45.428 C279.674667,44.6626667 282.408,44.28 285.36,44.28 C290.936,44.28 295.883333,45.428 300.202,47.724 C304.520667,50.02 307.773333,53.628 309.96,58.548 C312.802667,53.4093333 316.246667,49.7466667 320.292,47.56 C324.337333,45.3733333 329.312,44.28 335.216,44.28 C340.573333,44.28 345.083333,45.182 348.746,46.986 C352.408667,48.79 355.306,51.25 357.438,54.366 C359.57,57.482 361.100667,61.1446667 362.03,65.354 C362.959333,69.5633333 363.424,74.0733333 363.424,78.884 L363.424,125.952 L338.824,125.952 L338.824,79.54 C338.824,75.8226667 338.031333,72.6246667 336.446,69.946 C334.860667,67.2673333 332.045333,65.928 328,65.928 C325.157333,65.928 322.779333,66.3926667 320.866,67.322 C318.952667,68.2513333 317.422,69.536 316.274,71.176 C315.126,72.816 314.306,74.7293333 313.814,76.916 C313.322,79.1026667 313.076,81.3986667 313.076,83.804 L313.076,125.952 L288.476,125.952 L288.476,83.804 C288.476,82.3826667 288.421333,80.6333333 288.312,78.556 C288.202667,76.4786667 287.82,74.5106667 287.164,72.652 C286.508,70.7933333 285.442,69.208 283.966,67.896 C282.49,66.584 280.330667,65.928 277.488,65.928 C274.317333,65.928 271.748,66.502 269.78,67.65 C267.812,68.798 266.308667,70.3286667 265.27,72.242 C264.231333,74.1553333 263.548,76.3146667 263.22,78.72 C262.892,81.1253333 262.728,83.64 262.728,86.264 L262.728,125.952 L238.128,125.952 L238.128,46.248 Z" id="Path" fill="#4F46E5" fill-rule="nonzero"></path>
                <polygon id="Path" fill="#4F46E5" fill-rule="nonzero" points="381.136 1.968 405.736 1.968 405.736 125.952 381.136 125.952"></polygon>
                <g id="Rectangle" transform="translate(421.808, 6.888)">
                    <mask id="mask-2" fill="white">
                        <use xlink:href="#path-1"></use>
                    </mask>
                    <use id="Mask" fill="#4F46E5" fill-rule="nonzero" xlink:href="#path-1"></use>
                    <rect fill="#FDE047" mask="url(#mask-2)" x="-1.808" y="0.112" width="33" height="33"></rect>
                </g>
                <path d="M466.088,46.248 L489.704,46.248 L489.704,57.072 L490.032,57.072 C490.797333,55.5413333 491.890667,54.0106667 493.312,52.48 C494.733333,50.9493333 496.428,49.5826667 498.396,48.38 C500.364,47.1773333 502.605333,46.1933333 505.12,45.428 C507.634667,44.6626667 510.368,44.28 513.32,44.28 C519.552,44.28 524.581333,45.2366667 528.408,47.15 C532.234667,49.0633333 535.214,51.7146667 537.346,55.104 C539.478,58.4933333 540.926667,62.484 541.692,67.076 C542.457333,71.668 542.84,76.6426667 542.84,82 L542.84,125.952 L518.24,125.952 L518.24,86.92 C518.24,84.624 518.158,82.246 517.994,79.786 C517.83,77.326 517.338,75.0573333 516.518,72.98 C515.698,70.9026667 514.440667,69.208 512.746,67.896 C511.051333,66.584 508.618667,65.928 505.448,65.928 C502.277333,65.928 499.708,66.502 497.74,67.65 C495.772,68.798 494.268667,70.3286667 493.23,72.242 C492.191333,74.1553333 491.508,76.3146667 491.18,78.72 C490.852,81.1253333 490.688,83.64 490.688,86.264 L490.688,125.952 L466.088,125.952 L466.088,46.248 Z" id="Path" fill="#4F46E5" fill-rule="nonzero"></path>
                <polygon id="Path" fill="#4F46E5" fill-rule="nonzero" points="560.224 1.968 584.824 1.968 584.824 77.736 612.048 46.248 642.224 46.248 610.572 82.164 643.044 125.952 612.048 125.952 585.152 85.608 584.824 85.608 584.824 125.952 560.224 125.952"></polygon>
            </g>
        </g>
    </g>
</svg>